<?xml version="1.0" encoding="UTF-8"?>
<!DOCTYPE svg PUBLIC "-//W3C//DTD SVG 1.1//EN" "http://www.w3.org/Graphics/SVG/1.1/DTD/svg11.dtd">
<svg xmlns="http://www.w3.org/2000/svg" version="1.1" width="480px" height="480px" style="shape-rendering:geometricPrecision; text-rendering:geometricPrecision; image-rendering:optimizeQuality; fill-rule:evenodd; clip-rule:evenodd" xmlns:xlink="http://www.w3.org/1999/xlink">
<g><path style="opacity:1" fill="#839de9" d="M 387.5,38.5 C 388.833,40.5 390.5,42.1667 392.5,43.5C 392.738,45.4044 393.738,46.7377 395.5,47.5C 397.129,49.8577 398.295,52.5243 399,55.5C 399.667,178.167 399.667,300.833 399,423.5C 398.104,428.299 395.937,432.299 392.5,435.5C 391.094,435.973 390.427,436.973 390.5,438.5C 388.973,438.427 387.973,439.094 387.5,440.5C 384.299,443.937 380.299,446.104 375.5,447C 284.833,447.667 194.167,447.667 103.5,447C 101.277,446.434 99.2774,445.6 97.5,444.5C 97.0269,443.094 96.0269,442.427 94.5,442.5C 94.0269,441.094 93.0269,440.427 91.5,440.5C 90.1667,438.5 88.5,436.833 86.5,435.5C 83.0626,432.299 80.8959,428.299 80,423.5C 79.3333,300.833 79.3333,178.167 80,55.5C 80.7048,52.5243 81.8714,49.8577 83.5,47.5C 85.2624,46.7377 86.2624,45.4044 86.5,43.5C 88.5,42.1667 90.1667,40.5 91.5,38.5C 91.5,37.8333 91.8333,37.5 92.5,37.5C 94.0269,37.573 95.0269,36.9063 95.5,35.5C 97.8577,33.8714 100.524,32.7048 103.5,32C 194.167,31.3333 284.833,31.3333 375.5,32C 380.299,32.8959 384.299,35.0626 387.5,38.5 Z M 203.5,82.5 C 203.973,83.9063 204.973,84.573 206.5,84.5C 209.118,89.7301 213.451,92.3968 219.5,92.5C 220.833,94.5 222.5,96.1667 224.5,97.5C 231.265,110.691 232.265,124.357 227.5,138.5C 227.624,139.107 227.957,139.44 228.5,139.5C 228.932,140.71 229.599,141.71 230.5,142.5C 230.731,146.993 230.064,151.326 228.5,155.5C 227.167,156.167 226.167,157.167 225.5,158.5C 223.952,158.821 223.285,159.821 223.5,161.5C 221.597,164.979 219.93,168.646 218.5,172.5C 217.094,172.973 216.427,173.973 216.5,175.5C 214.871,176.625 213.371,177.959 212,179.5C 211.21,185.915 211.376,192.248 212.5,198.5C 213.522,201.522 215.522,203.522 218.5,204.5C 225.019,208.928 232.019,212.594 239.5,215.5C 240.585,217.587 242.251,218.92 244.5,219.5C 244.833,220.5 245.5,221.167 246.5,221.5C 246.427,223.027 247.094,224.027 248.5,224.5C 251.334,229.168 253.334,234.168 254.5,239.5C 212.5,239.5 170.5,239.5 128.5,239.5C 129.666,234.168 131.666,229.168 134.5,224.5C 135.906,224.027 136.573,223.027 136.5,221.5C 137.5,221.167 138.167,220.5 138.5,219.5C 140.027,219.573 141.027,218.906 141.5,217.5C 148.649,213.424 155.982,209.591 163.5,206C 167.058,204.108 169.558,201.275 171,197.5C 171.667,191.5 171.667,185.5 171,179.5C 169.629,177.959 168.129,176.625 166.5,175.5C 166.573,173.973 165.906,172.973 164.5,172.5C 163.07,168.646 161.403,164.979 159.5,161.5C 159.715,159.821 159.048,158.821 157.5,158.5C 156.833,157.167 155.833,156.167 154.5,155.5C 151.539,149.567 151.872,143.9 155.5,138.5C 150.225,122.658 151.891,107.658 160.5,93.5C 161.906,93.0269 162.573,92.0269 162.5,90.5C 163.167,90.5 163.5,90.1667 163.5,89.5C 165.027,89.573 166.027,88.9063 166.5,87.5C 178.015,80.2691 190.349,78.6024 203.5,82.5 Z M 344.5,146.5 C 345.167,147.833 346.167,148.833 347.5,149.5C 347.932,150.71 348.599,151.71 349.5,152.5C 352.67,162.319 349.67,169.486 340.5,174C 328.215,175.561 315.882,175.894 303.5,175C 299.845,174.669 296.512,173.502 293.5,171.5C 292.833,170.167 291.833,169.167 290.5,168.5C 285.78,158.061 288.447,150.228 298.5,145C 310.785,143.439 323.118,143.106 335.5,144C 338.652,144.395 341.652,145.228 344.5,146.5 Z M 344.5,210.5 C 345.167,211.833 346.167,212.833 347.5,213.5C 347.932,214.71 348.599,215.71 349.5,216.5C 352.67,226.319 349.67,233.486 340.5,238C 328.215,239.561 315.882,239.894 303.5,239C 299.845,238.669 296.512,237.502 293.5,235.5C 292.833,234.167 291.833,233.167 290.5,232.5C 285.78,222.061 288.447,214.228 298.5,209C 310.785,207.439 323.118,207.106 335.5,208C 338.652,208.395 341.652,209.228 344.5,210.5 Z M 344.5,290.5 C 345.167,291.833 346.167,292.833 347.5,293.5C 347.932,294.71 348.599,295.71 349.5,296.5C 352.818,309.038 348.152,316.538 335.5,319C 271.5,319.667 207.5,319.667 143.5,319C 139.845,318.669 136.512,317.502 133.5,315.5C 132.833,314.167 131.833,313.167 130.5,312.5C 125.514,299.303 129.847,291.137 143.5,288C 207.5,287.333 271.5,287.333 335.5,288C 338.652,288.395 341.652,289.228 344.5,290.5 Z M 344.5,354.5 C 345.167,355.833 346.167,356.833 347.5,357.5C 347.932,358.71 348.599,359.71 349.5,360.5C 352.818,373.038 348.152,380.538 335.5,383C 271.5,383.667 207.5,383.667 143.5,383C 139.845,382.669 136.512,381.502 133.5,379.5C 132.833,378.167 131.833,377.167 130.5,376.5C 125.514,363.303 129.847,355.137 143.5,352C 207.5,351.333 271.5,351.333 335.5,352C 338.652,352.395 341.652,353.228 344.5,354.5 Z"/></g>
<g><path style="opacity:0.961" fill="#a9bbef" d="M 95.5,35.5 C 95.0269,36.9063 94.0269,37.573 92.5,37.5C 92.9731,36.0937 93.9731,35.427 95.5,35.5 Z"/></g>
<g><path style="opacity:0.016" fill="#b2c2f1" d="M 387.5,38.5 C 390.167,39.1667 391.833,40.8333 392.5,43.5C 390.5,42.1667 388.833,40.5 387.5,38.5 Z"/></g>
<g><path style="opacity:0.906" fill="#adbef0" d="M 91.5,38.5 C 90.1667,40.5 88.5,42.1667 86.5,43.5C 87.1667,40.8333 88.8333,39.1667 91.5,38.5 Z"/></g>
<g><path style="opacity:0.949" fill="#a5b8ef" d="M 86.5,43.5 C 86.2624,45.4044 85.2624,46.7377 83.5,47.5C 83.7376,45.5956 84.7376,44.2623 86.5,43.5 Z"/></g>
<g><path style="opacity:0.945" fill="#a6b8ef" d="M 392.5,43.5 C 394.262,44.2623 395.262,45.5956 395.5,47.5C 393.738,46.7377 392.738,45.4044 392.5,43.5 Z"/></g>
<g><path style="opacity:0.682" fill="#b0c0f1" d="M 203.5,82.5 C 205.027,82.427 206.027,83.0937 206.5,84.5C 204.973,84.573 203.973,83.9063 203.5,82.5 Z"/></g>
<g><path style="opacity:0.008" fill="#b9c7f2" d="M 166.5,87.5 C 166.027,88.9063 165.027,89.573 163.5,89.5C 163.973,88.0937 164.973,87.427 166.5,87.5 Z"/></g>
<g><path style="opacity:0.008" fill="#b6c5f2" d="M 162.5,90.5 C 162.573,92.0269 161.906,93.0269 160.5,93.5C 160.427,91.9731 161.094,90.9731 162.5,90.5 Z"/></g>
<g><path style="opacity:0.906" fill="#adbef0" d="M 219.5,92.5 C 222.167,93.1667 223.833,94.8333 224.5,97.5C 222.5,96.1667 220.833,94.5 219.5,92.5 Z"/></g>
<g><path style="opacity:1" fill="#a2b5ee" d="M 228.5,139.5 C 230.048,139.821 230.715,140.821 230.5,142.5C 229.599,141.71 228.932,140.71 228.5,139.5 Z"/></g>
<g><path style="opacity:0.992" fill="#a6b8ef" d="M 344.5,146.5 C 346.5,146.5 347.5,147.5 347.5,149.5C 346.167,148.833 345.167,147.833 344.5,146.5 Z"/></g>
<g><path style="opacity:1" fill="#a5b7ef" d="M 347.5,149.5 C 349.048,149.821 349.715,150.821 349.5,152.5C 348.599,151.71 347.932,150.71 347.5,149.5 Z"/></g>
<g><path style="opacity:0.882" fill="#b2c2f1" d="M 154.5,155.5 C 155.833,156.167 156.833,157.167 157.5,158.5C 155.5,158.5 154.5,157.5 154.5,155.5 Z"/></g>
<g><path style="opacity:0.851" fill="#b0c0f1" d="M 228.5,155.5 C 228.5,157.5 227.5,158.5 225.5,158.5C 226.167,157.167 227.167,156.167 228.5,155.5 Z"/></g>
<g><path style="opacity:0.957" fill="#a6b8ef" d="M 157.5,158.5 C 159.048,158.821 159.715,159.821 159.5,161.5C 158.599,160.71 157.932,159.71 157.5,158.5 Z"/></g>
<g><path style="opacity:0.957" fill="#a4b7ef" d="M 225.5,158.5 C 225.068,159.71 224.401,160.71 223.5,161.5C 223.285,159.821 223.952,158.821 225.5,158.5 Z"/></g>
<g><path style="opacity:0.996" fill="#a5b7ef" d="M 290.5,168.5 C 291.833,169.167 292.833,170.167 293.5,171.5C 291.5,171.5 290.5,170.5 290.5,168.5 Z"/></g>
<g><path style="opacity:0.867" fill="#a8b9ef" d="M 164.5,172.5 C 165.906,172.973 166.573,173.973 166.5,175.5C 165.094,175.027 164.427,174.027 164.5,172.5 Z"/></g>
<g><path style="opacity:0.863" fill="#a8baef" d="M 218.5,172.5 C 218.573,174.027 217.906,175.027 216.5,175.5C 216.427,173.973 217.094,172.973 218.5,172.5 Z"/></g>
<g><path style="opacity:1" fill="#a7b9ef" d="M 212.5,198.5 C 214.785,200.118 216.785,202.118 218.5,204.5C 215.522,203.522 213.522,201.522 212.5,198.5 Z"/></g>
<g><path style="opacity:0.992" fill="#a6b8ef" d="M 344.5,210.5 C 346.5,210.5 347.5,211.5 347.5,213.5C 346.167,212.833 345.167,211.833 344.5,210.5 Z"/></g>
<g><path style="opacity:1" fill="#a5b7ef" d="M 347.5,213.5 C 349.048,213.821 349.715,214.821 349.5,216.5C 348.599,215.71 347.932,214.71 347.5,213.5 Z"/></g>
<g><path style="opacity:0.882" fill="#aabbef" d="M 239.5,215.5 C 241.749,216.08 243.415,217.413 244.5,219.5C 242.251,218.92 240.585,217.587 239.5,215.5 Z"/></g>
<g><path style="opacity:0.016" fill="#b8c6f2" d="M 141.5,217.5 C 141.027,218.906 140.027,219.573 138.5,219.5C 138.973,218.094 139.973,217.427 141.5,217.5 Z"/></g>
<g><path style="opacity:0.016" fill="#b4c3f1" d="M 136.5,221.5 C 136.573,223.027 135.906,224.027 134.5,224.5C 134.427,222.973 135.094,221.973 136.5,221.5 Z"/></g>
<g><path style="opacity:0.016" fill="#b3c3f1" d="M 246.5,221.5 C 247.906,221.973 248.573,222.973 248.5,224.5C 247.094,224.027 246.427,223.027 246.5,221.5 Z"/></g>
<g><path style="opacity:0.992" fill="#a6b8ef" d="M 290.5,232.5 C 291.833,233.167 292.833,234.167 293.5,235.5C 291.5,235.5 290.5,234.5 290.5,232.5 Z"/></g>
<g><path style="opacity:0.992" fill="#a6b8ef" d="M 344.5,290.5 C 346.5,290.5 347.5,291.5 347.5,293.5C 346.167,292.833 345.167,291.833 344.5,290.5 Z"/></g>
<g><path style="opacity:1" fill="#a5b7ef" d="M 347.5,293.5 C 349.048,293.821 349.715,294.821 349.5,296.5C 348.599,295.71 347.932,294.71 347.5,293.5 Z"/></g>
<g><path style="opacity:0.996" fill="#a5b7ef" d="M 130.5,312.5 C 131.833,313.167 132.833,314.167 133.5,315.5C 131.5,315.5 130.5,314.5 130.5,312.5 Z"/></g>
<g><path style="opacity:0.992" fill="#a6b8ef" d="M 344.5,354.5 C 346.5,354.5 347.5,355.5 347.5,357.5C 346.167,356.833 345.167,355.833 344.5,354.5 Z"/></g>
<g><path style="opacity:1" fill="#a5b7ef" d="M 347.5,357.5 C 349.048,357.821 349.715,358.821 349.5,360.5C 348.599,359.71 347.932,358.71 347.5,357.5 Z"/></g>
<g><path style="opacity:0.996" fill="#a5b7ef" d="M 130.5,376.5 C 131.833,377.167 132.833,378.167 133.5,379.5C 131.5,379.5 130.5,378.5 130.5,376.5 Z"/></g>
<g><path style="opacity:0.008" fill="#b3c2f1" d="M 86.5,435.5 C 88.5,436.833 90.1667,438.5 91.5,440.5C 88.8333,439.833 87.1667,438.167 86.5,435.5 Z"/></g>
<g><path style="opacity:0.008" fill="#b6c5f2" d="M 392.5,435.5 C 392.573,437.027 391.906,438.027 390.5,438.5C 390.427,436.973 391.094,435.973 392.5,435.5 Z"/></g>
<g><path style="opacity:0.016" fill="#b8c7f2" d="M 390.5,438.5 C 390.027,439.906 389.027,440.573 387.5,440.5C 387.973,439.094 388.973,438.427 390.5,438.5 Z"/></g>
<g><path style="opacity:0.933" fill="#a3b6ee" d="M 91.5,440.5 C 93.0269,440.427 94.0269,441.094 94.5,442.5C 92.9731,442.573 91.9731,441.906 91.5,440.5 Z"/></g>
<g><path style="opacity:0.733" fill="#abbcf0" d="M 94.5,442.5 C 96.0269,442.427 97.0269,443.094 97.5,444.5C 95.9731,444.573 94.9731,443.906 94.5,442.5 Z"/></g>
</svg>
